<svg width="59" height="56" viewBox="0 0 59 56" fill="none" xmlns="http://www.w3.org/2000/svg" aria-hidden="true">
  <path
    d="M29.5 50.5c-9.5 0-17.5-7-17.5-15.5 0-5.2 2.8-9.8 7.3-12.2-1.3-2.3-2-4.9-2-7.6 0-7.9 5.4-14.2 12.2-14.2s12.2 6.3 12.2 14.2c0 2.7-.7 5.3-2 7.6 4.5 2.4 7.3 7 7.3 12.2 0 8.5-8 15.5-17.5 15.5Z"
    stroke="#D8AA78"
    stroke-linecap="round"
    stroke-linejoin="round"
  />
  <path
    d="M29.5 16.5v9M24.5 25.5h10M21.5 32c2.4 2.2 5 3.3 8 3.3s5.6-1.1 8-3.3"
    stroke="#D8AA78"
    stroke-linecap="round"
    stroke-linejoin="round"
  />
  <path
    d="M16.5 20.5c1.6-3.8 5-6.5 13-6.5s11.4 2.7 13 6.5"
    stroke="#D8AA78"
    stroke-linecap="round"
  />
</svg>
